<svg width="108" height="16" viewBox="0 0 108 16" fill="none" xmlns="http://www.w3.org/2000/svg">
<path fill-rule="evenodd" clip-rule="evenodd" d="M26.6226 4.88599C25.4627 4.88599 24.4685 5.30006 23.6401 5.96259V5.05162H20.8232V15.7348H23.7229V8.94395C24.1371 8.36424 25.1313 7.6189 26.374 7.6189C26.7883 7.6189 27.2025 7.70172 27.5339 7.78453V5.05162C27.2025 4.9688 26.8711 4.88599 26.6226 4.88599Z" fill="#293E40"/>
<path fill-rule="evenodd" clip-rule="evenodd" d="M1.68555 12.4205C2.43117 13.0831 3.59104 13.4971 4.58521 13.4971C5.33083 13.4971 5.99361 13.0831 5.99361 12.5862C5.99361 10.9299 0.774223 11.5096 0.774223 8.11414C0.774223 6.04375 2.76256 4.80151 4.83375 4.80151C6.24216 4.80151 7.73341 5.29841 8.47904 5.87812L7.15348 7.94851C6.57355 7.61724 5.91077 7.20317 5.08229 7.20317C4.25382 7.20317 3.67388 7.53443 3.67388 8.11414C3.67388 9.522 8.89328 8.94229 8.89328 12.669C8.89328 14.7394 6.90494 15.9816 4.66805 15.9816C3.1768 15.9816 1.6027 15.4847 0.359985 14.5738L1.68555 12.4205Z" fill="#293E40"/>
<path fill-rule="evenodd" clip-rule="evenodd" d="M19.5806 10.2673C19.5806 7.28598 17.5094 4.80151 14.5269 4.80151C11.3787 4.80151 9.3075 7.45161 9.3075 10.3502C9.3075 13.7456 11.7101 15.8988 14.8583 15.8988C16.5152 15.8988 18.1722 15.2363 19.2492 13.994L17.5922 12.3377C17.0952 12.9174 16.101 13.58 14.9411 13.58C13.4499 13.58 12.2072 12.5034 12.0415 11.0127H19.4149C19.5806 10.8471 19.5806 10.5986 19.5806 10.2673ZM12.29 9.02511C12.4557 8.03132 13.4499 7.12035 14.6097 7.12035C15.7696 7.12035 16.5981 8.03132 16.7638 9.02511H12.29Z" fill="#293E40"/>
<path fill-rule="evenodd" clip-rule="evenodd" d="M40.1268 5.05176L35.2388 15.735H33.2504L28.3624 5.05176H31.2621L34.2446 11.5942L37.1443 5.05176H40.1268Z" fill="#293E40"/>
<path fill-rule="evenodd" clip-rule="evenodd" d="M42.5294 0C43.6064 0 44.4349 0.828156 44.4349 1.82194C44.4349 2.89855 43.6064 3.64389 42.5294 3.64389C41.4524 3.64389 40.7068 2.81573 40.7068 1.82194C40.7068 0.74534 41.4524 0 42.5294 0Z" fill="#293E40"/>
<path d="M44.0206 5.05151H41.121V15.7347H44.0206V5.05151Z" fill="#293E40"/>
<path fill-rule="evenodd" clip-rule="evenodd" d="M55.7849 13.4972C54.5422 15.1535 52.9681 15.8988 50.9798 15.8988C47.6659 15.8988 45.2633 13.4143 45.2633 10.3502C45.2633 7.20317 47.7487 4.80151 50.9798 4.80151C52.8853 4.80151 54.4594 5.71248 55.4535 6.95472L53.548 8.69385C52.9681 7.94851 52.1396 7.45161 51.1455 7.45161C49.4885 7.45161 48.2458 8.77666 48.2458 10.3502C48.2458 12.0065 49.4057 13.2487 51.1455 13.2487C52.3053 13.2487 53.2167 12.5862 53.7137 11.8408L55.7849 13.4972Z" fill="#293E40"/>
<path fill-rule="evenodd" clip-rule="evenodd" d="M66.1408 13.994C65.0638 15.2363 63.4068 15.8988 61.7499 15.8988C58.6017 15.8988 56.1991 13.7456 56.1991 10.3502C56.1991 7.3688 58.1874 4.80151 61.4185 4.80151C64.3181 4.80151 66.4722 7.28598 66.4722 10.2673C66.4722 10.5986 66.4722 10.8471 66.3893 11.0955H58.9331C59.0988 12.5862 60.3415 13.6628 61.8327 13.6628C62.9926 13.6628 63.9868 13.0003 64.4838 12.4205L66.1408 13.994ZM63.4897 9.02511C63.4068 8.11414 62.5784 7.12035 61.3356 7.12035C60.1758 7.12035 59.1816 8.03132 59.0159 9.02511H63.4897Z" fill="#293E40"/>
<path fill-rule="evenodd" clip-rule="evenodd" d="M67.5493 15.7331V5.04991H70.2833V5.96088C71.1118 5.29835 72.1059 4.88428 73.2658 4.88428C74.757 4.88428 76.0826 5.5468 76.9939 6.6234C77.6567 7.45156 78.1538 8.52816 78.1538 10.3501V15.8159H75.2541V10.1017C75.2541 9.02506 75.0056 8.44535 74.5913 8.11408C74.1771 7.70001 73.68 7.45156 72.9344 7.45156C71.7745 7.45156 70.7804 8.1969 70.2833 8.77661V15.7331H67.5493Z" fill="#293E40"/>
<path fill-rule="evenodd" clip-rule="evenodd" d="M85.5272 4.80322C82.0476 4.80322 79.3136 7.53614 79.3136 11.0144C79.3136 12.8363 80.0592 14.4926 81.2191 15.6521C81.6333 16.0661 82.379 16.0661 82.876 15.7349C83.5388 15.1552 84.533 14.8239 85.5272 14.8239C86.6042 14.8239 87.4327 15.1552 88.1783 15.7349C88.6754 16.149 89.3381 16.0661 89.8352 15.5692C90.9951 14.4098 91.7407 12.8363 91.7407 11.0144C91.6579 7.61895 88.9239 4.80322 85.5272 4.80322ZM85.4443 14.2442C83.5388 14.2442 82.2961 12.8363 82.2961 11.0972C82.2961 9.35808 83.5388 7.95021 85.4443 7.95021C87.3498 7.95021 88.5925 9.35808 88.5925 11.0972C88.5925 12.8363 87.3498 14.2442 85.4443 14.2442Z" fill="#81B5A1"/>
<path fill-rule="evenodd" clip-rule="evenodd" d="M90.9952 5.05176H93.8121L96.1318 11.1801L98.4515 5.05176H100.854L103.091 11.1801L105.411 5.05176H108.31L104.085 15.735H101.931L99.6114 9.68943L97.3745 15.735H95.2205L90.9952 5.05176Z" fill="#293E40"/>
</svg>
