<svg width="45" height="16" viewBox="0 0 45 16" fill="none" xmlns="http://www.w3.org/2000/svg">
<path d="M23.3654 1.95508H25.0153V10.3296C25.0153 12.5482 24.0445 14.0794 21.7696 14.0794C21.0969 14.0895 20.4275 13.9838 19.7906 13.7669V12.1628C20.3338 12.3734 20.912 12.4795 21.4947 12.4753C22.8883 12.4753 23.3695 11.642 23.3695 10.44L23.3654 1.95508Z" fill="#253858"/>
<path d="M28.0214 1.31122C28.1685 1.30069 28.3162 1.32192 28.4545 1.37347C28.5927 1.42503 28.7182 1.50569 28.8225 1.61001C28.9268 1.71433 29.0075 1.83986 29.0591 1.97808C29.1106 2.11631 29.1319 2.264 29.1213 2.41115C29.1213 2.70287 29.0054 2.98265 28.7992 3.18892C28.5929 3.3952 28.3131 3.51109 28.0214 3.51109C27.7297 3.51109 27.4499 3.3952 27.2436 3.18892C27.0373 2.98265 26.9214 2.70287 26.9214 2.41115C26.9109 2.264 26.9321 2.11631 26.9837 1.97808C27.0353 1.83986 27.1159 1.71433 27.2202 1.61001C27.3246 1.50569 27.4501 1.42503 27.5883 1.37347C27.7265 1.32192 27.8742 1.30069 28.0214 1.31122ZM27.2152 4.83184H28.7922V13.998H27.2152V4.83184Z" fill="#253858"/>
<path d="M31.1733 4.82986H32.7128V6.44227C33.2441 5.36108 34.1711 4.5903 35.9585 4.70071V6.2402C33.9419 6.03188 32.7128 6.64434 32.7128 8.58589V14.0022H31.1733V4.82986Z" fill="#253858"/>
<path d="M43.3455 12.346C42.758 13.5564 41.6581 14.1793 40.2478 14.1793C37.8104 14.1793 36.5813 12.1085 36.5813 9.41287C36.5813 6.82761 37.8646 4.64648 40.4311 4.64648C41.7685 4.64648 42.7955 5.25062 43.3476 6.44221V4.82981H44.9246V13.9959H43.3476L43.3455 12.346ZM40.6686 12.7127C42.081 12.7127 43.3455 11.8148 43.3455 9.77951V9.03789C43.3455 7.00259 42.1914 6.10473 40.8456 6.10473C39.0666 6.10473 38.15 7.27758 38.15 9.40454C38.1583 11.6127 39.0374 12.7127 40.6706 12.7127H40.6686Z" fill="#253858"/>
<path d="M15.6825 7.52964L8.89127 0.738373L8.23298 0.0800781L3.12078 5.19228L0.78342 7.52964C0.666384 7.64682 0.600647 7.80566 0.600647 7.97128C0.600647 8.13689 0.666384 8.29574 0.78342 8.41292L5.45398 13.0835L8.23298 15.8625L13.3452 10.7503L13.4243 10.6711L15.6825 8.41292C15.7996 8.29574 15.8653 8.13689 15.8653 7.97128C15.8653 7.80566 15.7996 7.64682 15.6825 7.52964V7.52964ZM8.23298 10.3045L5.89978 7.97128L8.23298 5.63808L10.5662 7.97128L8.23298 10.3045Z" fill="#2684FF"/>
</svg>
