<svg width="132" height="24" viewBox="0 0 132 24" fill="none" xmlns="http://www.w3.org/2000/svg">
<path d="M2.73369 18.9697C2.24787 18.9707 1.77049 18.8428 1.3503 18.599C0.930104 18.3552 0.582168 18.0042 0.342034 17.5818C0.105575 17.1625 -0.0123536 16.6867 0.000881121 16.2055C0.0141158 15.7243 0.158015 15.2557 0.417164 14.85L5.34238 7.11575C5.59446 6.70008 5.95236 6.35877 6.37951 6.12667C6.80667 5.89458 7.28777 5.78003 7.77369 5.79471C8.25923 5.80635 8.73296 5.94678 9.14641 6.20163C9.55986 6.45648 9.89817 6.8166 10.1267 7.24515C10.5859 8.11332 10.5285 9.15784 9.97856 9.9728L5.05647 17.7071C4.80686 18.096 4.46311 18.4157 4.05707 18.6364C3.65103 18.8571 3.19583 18.9717 2.73369 18.9697Z" fill="#F62B54"/>
<path d="M11.1818 18.9696C10.1884 18.9696 9.27436 18.4384 8.79436 17.5849C8.55843 17.1667 8.44077 16.6922 8.45401 16.2122C8.46724 15.7322 8.61087 15.2649 8.86949 14.8604L13.7853 7.14383C14.0337 6.72232 14.3903 6.37492 14.8182 6.13768C15.2461 5.90044 15.7296 5.78199 16.2187 5.79461C17.2204 5.81653 18.1283 6.37688 18.5874 7.2534C19.0434 8.12992 18.9766 9.1807 18.41 9.99357L13.4952 17.7101C13.2464 18.0974 12.904 18.4158 12.4997 18.6359C12.0954 18.856 11.6422 18.9708 11.1818 18.9696Z" fill="#FFCC00"/>
<path d="M19.4409 19.0342C20.8413 19.0342 21.9766 17.9228 21.9766 16.5518C21.9766 15.1808 20.8413 14.0693 19.4409 14.0693C18.0405 14.0693 16.9053 15.1808 16.9053 16.5518C16.9053 17.9228 18.0405 19.0342 19.4409 19.0342Z" fill="#00CA72"/>
<path d="M129.597 14.2132C130.363 14.2132 130.821 14.7579 130.821 15.6501V18.7075H131.861V15.5802C131.861 14.0629 131.146 13.1833 129.802 13.1833C129.276 13.1833 128.442 13.3273 127.944 14.2946C127.828 14.0093 127.637 13.7606 127.392 13.5751C127.146 13.3895 126.855 13.2739 126.549 13.2407C126.356 13.2054 126.16 13.1938 125.964 13.2062C125.537 13.2407 124.775 13.5068 124.49 14.1099V13.2991H123.449V18.7075H124.49V15.7889C124.49 14.6535 125.233 14.2132 125.977 14.2132C126.674 14.2132 127.132 14.7464 127.132 15.6386V18.7075H128.167V15.7889C128.167 14.8852 128.71 14.2028 129.597 14.2132ZM119.626 17.8038C120.102 17.8142 120.561 17.6243 120.894 17.28C121.228 16.9356 121.405 16.4671 121.388 15.9861C121.388 14.8967 120.586 14.2132 119.626 14.2132C118.665 14.2132 117.865 14.8967 117.865 15.9861C117.846 16.4661 118.024 16.9335 118.355 17.2769C118.687 17.6212 119.144 17.8122 119.618 17.8038H119.626ZM119.626 18.8181C118.105 18.8181 116.835 17.6942 116.835 15.9798C116.835 14.2654 118.105 13.177 119.626 13.177C121.148 13.177 122.428 14.2654 122.428 15.9798C122.428 17.6942 121.14 18.8233 119.619 18.8233L119.626 18.8181ZM111.477 15.9798L111.466 15.9861C111.466 14.2716 112.77 13.1833 114.301 13.177C114.686 13.1696 115.068 13.243 115.423 13.3926C115.778 13.5421 116.097 13.7645 116.36 14.0452L115.571 14.7172C115.404 14.5527 115.205 14.423 114.987 14.3356C114.769 14.2482 114.536 14.2048 114.301 14.208C113.341 14.208 112.507 14.8915 112.507 15.9798C112.507 16.7155 112.944 17.3781 113.615 17.6598C114.286 17.9415 115.058 17.785 115.571 17.2654L116.372 17.9374C116.108 18.221 115.787 18.446 115.43 18.5977C115.074 18.7494 114.689 18.8245 114.301 18.8181C112.781 18.8181 111.477 17.6942 111.477 15.9798ZM108.145 17.6692C108.144 17.5746 108.161 17.4808 108.197 17.393C108.232 17.3053 108.284 17.2253 108.35 17.1576C108.416 17.09 108.495 17.036 108.582 16.9988C108.669 16.9616 108.762 16.9419 108.857 16.9409C108.951 16.9419 109.045 16.9616 109.132 16.9988C109.218 17.036 109.297 17.09 109.363 17.1576C109.429 17.2253 109.481 17.3053 109.517 17.393C109.552 17.4808 109.569 17.5746 109.568 17.6692C109.559 17.8523 109.48 18.025 109.348 18.152C109.216 18.279 109.04 18.3508 108.857 18.3527C108.673 18.3508 108.498 18.279 108.365 18.152C108.233 18.025 108.154 17.8523 108.145 17.6692Z" fill="#333333"/>
<path fill-rule="evenodd" clip-rule="evenodd" d="M110.992 6.42365H107.286L104.689 13.1197L102.105 6.42365H98.3999L102.905 17.0045L100.103 24H103.781L110.992 6.42365ZM88.4566 12.3089C88.4566 13.9993 89.9341 15.1117 91.3856 15.1117C92.812 15.1117 94.2134 14.0765 94.2134 12.3078C94.2134 10.5391 92.812 9.50296 91.3856 9.50296C89.9341 9.50296 88.4566 10.6174 88.4566 12.3089ZM94.2134 18.217V16.8783C93.4621 18.0157 91.7091 18.4456 90.8096 18.4456C87.8315 18.4456 84.8524 16.0977 84.8524 12.3078C84.8524 8.51896 87.8305 6.17113 90.8096 6.17113C91.5599 6.17113 93.3129 6.42157 94.2134 7.73635V6.42783H97.6673V18.2191L94.2134 18.217ZM83.8694 18.217H80.4155V16.752C79.8385 17.8372 78.4392 18.4696 76.9866 18.4696C73.9825 18.4696 71.3289 16.0706 71.3289 12.3558C71.3289 8.57113 73.9825 6.16904 76.9866 6.16904C78.4371 6.16904 79.8406 6.77426 80.4155 7.86052V0H83.8694V18.217ZM80.3404 12.2817C80.3404 10.5141 79.0642 9.47791 77.6378 9.47791C76.1602 9.47791 74.9331 10.5892 74.9331 12.2817C74.9331 14.0285 76.1602 15.1346 77.6367 15.1346C79.0903 15.1367 80.3404 13.9743 80.3404 12.2817ZM62.7891 11.977C62.7891 10.1843 63.7157 9.57809 64.9418 9.57809C66.1178 9.57809 66.9692 10.3607 66.9692 11.9259V18.215H70.4482V11.1694C70.4482 7.81148 68.7953 6.16904 66.1668 6.16904C64.7905 6.16904 63.4141 6.95165 62.788 8.13913V6.42365H59.3112V18.215H62.7891V11.977ZM52.2468 18.4174C48.9432 18.4174 46.1873 15.9934 46.1873 12.2807C46.1873 8.56591 48.94 6.16591 52.2468 6.16591C55.5536 6.16591 58.3303 8.56591 58.3303 12.2807C58.3303 15.9955 55.5505 18.4174 52.2468 18.4174ZM52.2468 14.9843C53.6972 14.9843 54.9004 13.9221 54.9004 12.2817C54.9004 10.6904 53.6983 9.60417 52.2468 9.60417C51.8973 9.59871 51.5504 9.66444 51.2271 9.79737C50.9038 9.9303 50.611 10.1276 50.3665 10.3774C50.1205 10.6285 49.9275 10.9264 49.799 11.2536C49.6705 11.5807 49.609 11.9304 49.6183 12.2817C49.6193 13.9242 50.8204 14.9843 52.2468 14.9843ZM39.9505 9.57913C40.9762 9.57913 41.8778 10.3878 41.8778 11.927V18.217H45.3317V11.52C45.3317 7.95965 43.6006 6.16696 40.8259 6.16696C40.0016 6.16696 38.4489 6.41739 37.3219 8.26226C36.6708 6.89844 35.4197 6.19096 33.5706 6.19096C32.9287 6.18769 32.2993 6.36938 31.7579 6.71431C31.2164 7.05924 30.7858 7.5528 30.5174 8.136V6.4247H27.0364V18.216H30.5143V11.977C30.5143 10.1843 31.491 9.57809 32.5418 9.57809C33.5435 9.57809 34.443 10.3607 34.4691 11.8508V18.216H37.948V11.977C37.948 10.2626 38.8496 9.57913 39.9505 9.57913Z" fill="#333333"/>
</svg>
