<svg width="22" height="15" viewBox="0 0 22 15" fill="none" xmlns="http://www.w3.org/2000/svg">
<path d="M2.73369 13.9697C2.24787 13.9707 1.77049 13.8428 1.3503 13.599C0.930104 13.3552 0.582168 13.0042 0.342034 12.5818C0.105575 12.1625 -0.0123536 11.6867 0.000881121 11.2055C0.0141158 10.7243 0.158015 10.2557 0.417164 9.85001L5.34238 2.11575C5.59446 1.70008 5.95236 1.35877 6.37951 1.12667C6.80667 0.894582 7.28777 0.780027 7.77369 0.79471C8.25923 0.806346 8.73296 0.946775 9.14641 1.20163C9.55986 1.45648 9.89817 1.8166 10.1267 2.24515C10.5859 3.11332 10.5285 4.15784 9.97856 4.9728L5.05647 12.7071C4.80686 13.096 4.46311 13.4157 4.05707 13.6364C3.65103 13.8571 3.19583 13.9717 2.73369 13.9697Z" fill="#F62B54"/>
<path d="M11.1818 13.9696C10.1884 13.9696 9.27436 13.4384 8.79436 12.5849C8.55843 12.1667 8.44077 11.6922 8.45401 11.2122C8.46724 10.7322 8.61087 10.2649 8.86949 9.86035L13.7853 2.14383C14.0337 1.72232 14.3903 1.37492 14.8182 1.13768C15.2461 0.900438 15.7296 0.781988 16.2187 0.794615C17.2204 0.816528 18.1283 1.37688 18.5874 2.2534C19.0434 3.12992 18.9766 4.1807 18.41 4.99357L13.4952 12.7101C13.2464 13.0974 12.904 13.4158 12.4997 13.6359C12.0954 13.856 11.6422 13.9708 11.1818 13.9696Z" fill="#FFCC00"/>
<path d="M19.4409 14.0342C20.8413 14.0342 21.9766 12.9228 21.9766 11.5518C21.9766 10.1808 20.8413 9.06934 19.4409 9.06934C18.0405 9.06934 16.9053 10.1808 16.9053 11.5518C16.9053 12.9228 18.0405 14.0342 19.4409 14.0342Z" fill="#00CA72"/>
</svg>
