<svg width="20" height="21" viewBox="0 0 20 21" fill="none" xmlns="http://www.w3.org/2000/svg">
<path d="M10 0.00488281C15.5242 0.00488281 20 4.48072 20 10.0049C20 15.4957 15.5467 20.0049 10 20.0049C4.46417 20.0049 0 15.5074 0 10.0049C0 4.48072 4.47583 0.00488281 10 0.00488281ZM16.9083 15.0832C17.9467 13.6549 18.5717 11.9024 18.5717 10.0049C18.5717 5.28405 14.7208 1.43322 10 1.43322C5.27917 1.43322 1.42833 5.28405 1.42833 10.0049C1.42833 11.9024 2.05333 13.654 3.09167 15.0832C3.49333 13.0857 4.46417 11.434 6.50667 11.434C7.41083 12.3157 8.63833 12.8624 10 12.8624C11.3617 12.8624 12.5892 12.3157 13.4933 11.434C15.5358 11.434 16.5067 13.0857 16.9083 15.0832ZM14.2858 7.86238C14.2858 5.49655 12.3658 3.57655 10 3.57655C7.63417 3.57655 5.71417 5.49655 5.71417 7.86238C5.71417 10.2282 7.63417 12.1482 10 12.1482C12.3658 12.1482 14.2858 10.2282 14.2858 7.86238Z" fill="white"/>
</svg>
