<svg width="150" height="26" viewBox="0 0 150 26" fill="none" xmlns="http://www.w3.org/2000/svg">
<path d="M13.9192 5.37777C13.9192 4.15176 14.3943 3.00934 15.2608 2.14557C16.1273 1.28179 17.2825 0.808105 18.503 0.808105C19.7235 0.808105 20.8788 1.28179 21.7452 2.14557C22.6117 3.00934 23.0869 4.16105 23.0869 5.37777C23.0869 6.59448 22.6117 7.74619 21.7452 8.60996C20.8508 9.5016 19.6769 9.94742 18.503 9.94742C17.3291 9.94742 16.1552 9.5016 15.2608 8.60996C14.4037 7.74619 13.9192 6.60377 13.9192 5.37777Z" fill="white"/>
<path d="M9.16766 18.3995C9.16766 19.6162 8.6925 20.7679 7.82605 21.6317C6.95959 22.4955 5.80432 22.9692 4.58383 22.9692C3.36334 22.9692 2.20806 22.4955 1.34161 21.6317C0.475153 20.7679 0 19.6162 0 18.3995C0 17.1828 0.475153 16.0311 1.34161 15.1673C2.23601 14.2757 3.40992 13.8298 4.58383 13.8298C5.75774 13.8298 6.93164 14.2757 7.82605 15.1673C8.6925 16.0311 9.16766 17.1828 9.16766 18.3995Z" fill="white"/>
<path d="M15.0279 10.4954C14.7111 10.2817 14.4037 10.0402 14.1242 9.75232C12.9503 8.58204 12.3074 7.03096 12.3074 5.37771C12.3074 3.72446 12.9503 2.17337 14.1242 1.0031C14.4037 0.724458 14.7018 0.482972 15.0279 0.260062C15.0651 0.232198 15.0931 0.185759 15.0931 0.139319C15.0931 0.0650155 15.0279 0 14.9533 0H7.73288C4.75153 0 2.3385 2.40557 2.3385 5.37771C2.3385 8.34985 4.75153 10.7554 7.73288 10.7554H14.944C15.0279 10.7554 15.0838 10.6904 15.0838 10.6161C15.0931 10.5604 15.0651 10.5232 15.0279 10.4954Z" fill="white"/>
<path d="M15.3726 13.0217H8.1428C8.05895 13.0217 8.00305 13.0867 8.00305 13.161C8.00305 13.2075 8.031 13.2539 8.06827 13.2818C8.38504 13.4954 8.69249 13.7369 8.97199 14.0248C10.1459 15.1951 10.7888 16.7462 10.7888 18.3994C10.7888 20.0527 10.1459 21.6038 8.97199 22.774C8.69249 23.0527 8.38504 23.3035 8.06827 23.5171C8.031 23.5449 8.00305 23.5914 8.00305 23.6378C8.00305 23.7214 8.06827 23.7864 8.1428 23.7864H15.3633C18.3446 23.7864 20.7577 21.3809 20.7577 18.4087C20.767 15.4273 18.3539 13.0217 15.3726 13.0217Z" fill="white"/>
<path d="M68.1057 19.647C67.8168 19.647 67.5839 19.5635 67.4069 19.387C67.2206 19.2105 67.1367 18.9876 67.1367 18.6997V8.26005C67.1367 7.97212 67.2299 7.73992 67.4069 7.56345C67.5932 7.3777 67.8262 7.2941 68.1057 7.2941C68.3945 7.2941 68.6181 7.38698 68.7951 7.56345C68.9721 7.74921 69.056 7.98141 69.056 8.26005V18.6997C69.056 18.9876 68.9721 19.2198 68.7951 19.387C68.6181 19.5635 68.3945 19.647 68.1057 19.647ZM75.9224 19.647C75.6522 19.647 75.4193 19.5635 75.233 19.387C75.0466 19.2105 74.9535 18.9876 74.9535 18.6997V12.2167C74.9535 11.1765 74.6926 10.3777 74.1615 9.81113C73.6305 9.24457 72.9504 8.96593 72.1212 8.96593C71.2268 8.96593 70.5001 9.26314 69.9224 9.84828C69.3448 10.4334 69.0653 11.195 69.0653 12.1331H67.7703C67.7889 11.1579 67.9939 10.2941 68.3945 9.54178C68.7951 8.79875 69.3448 8.21361 70.0342 7.78636C70.733 7.36841 71.5156 7.15479 72.3914 7.15479C73.2671 7.15479 74.0497 7.35912 74.7298 7.76779C75.41 8.17646 75.941 8.7616 76.3323 9.52321C76.7143 10.2848 76.91 11.1857 76.91 12.226V18.709C76.91 18.9969 76.8168 19.2291 76.6398 19.3963C76.4441 19.5635 76.2112 19.647 75.9224 19.647ZM83.7205 19.647C83.4317 19.647 83.1988 19.5635 83.0217 19.387C82.8447 19.2105 82.7516 18.9876 82.7516 18.6997V12.2167C82.7516 11.1765 82.4907 10.3777 81.9596 9.81113C81.4286 9.24457 80.7485 8.96593 79.9193 8.96593C79.0249 8.96593 78.2982 9.26315 77.7298 9.85757C77.1615 10.452 76.8913 11.2415 76.9007 12.2167H75.2236C75.2423 11.2043 75.4566 10.322 75.8758 9.56036C76.2951 8.79875 76.882 8.20432 77.6367 7.78636C78.3913 7.36841 79.2391 7.15479 80.1895 7.15479C81.0652 7.15479 81.8478 7.35912 82.528 7.76779C83.2081 8.17646 83.7391 8.7616 84.1118 9.52321C84.4845 10.2848 84.6801 11.1857 84.6801 12.226V18.709C84.6801 18.9969 84.5963 19.2291 84.4192 19.3963C84.2422 19.5635 84.0093 19.647 83.7205 19.647Z" fill="white"/>
<path d="M88.3693 24.9319C88.0805 24.9319 87.8476 24.839 87.6706 24.6625C87.4936 24.486 87.4004 24.2445 87.4004 23.9659V13.4148C87.419 12.2353 87.6985 11.1857 88.2482 10.2384C88.7979 9.29099 89.5432 8.54795 90.4842 7.99997C91.4252 7.45198 92.478 7.17334 93.6612 7.17334C94.8724 7.17334 95.9438 7.45198 96.8941 7.99997C97.8351 8.54795 98.5898 9.30028 99.1395 10.2476C99.6892 11.195 99.9687 12.2724 99.9687 13.4798C99.9687 14.6687 99.7078 15.7368 99.1861 16.6935C98.6643 17.6408 97.9469 18.3932 97.0432 18.9411C96.1395 19.4891 95.1053 19.7678 93.9594 19.7678C92.9904 19.7678 92.1053 19.5634 91.3041 19.1455C90.5029 18.7275 89.8414 18.1888 89.329 17.5108V23.9752C89.329 24.2631 89.2451 24.4953 89.0681 24.6718C88.8818 24.8483 88.6582 24.9319 88.3693 24.9319ZM93.6519 18.0216C94.4997 18.0216 95.2544 17.8266 95.9159 17.4365C96.5774 17.0464 97.1084 16.4984 97.4904 15.8111C97.8724 15.1145 98.068 14.3436 98.068 13.4798C98.068 12.6068 97.8724 11.8266 97.4904 11.1393C97.1084 10.452 96.5774 9.91328 95.9159 9.5139C95.2544 9.11452 94.4997 8.91018 93.6519 8.91018C92.832 8.91018 92.0867 9.11452 91.4159 9.5139C90.7451 9.91328 90.214 10.452 89.8414 11.1393C89.4594 11.8266 89.2731 12.6068 89.2731 13.4798C89.2731 14.3343 89.4594 15.1145 89.8414 15.8111C90.2234 16.5077 90.7451 17.0464 91.4159 17.4365C92.0867 17.8266 92.832 18.0216 93.6519 18.0216Z" fill="white"/>
<path d="M105.027 19.6471C104.403 19.6471 103.853 19.4799 103.36 19.1362C102.866 18.7926 102.484 18.3282 102.214 17.7245C101.943 17.1207 101.804 16.4334 101.804 15.644V2.94737C101.804 2.65944 101.888 2.43653 102.065 2.26006C102.242 2.08359 102.465 2 102.754 2C103.043 2 103.276 2.08359 103.443 2.26006C103.62 2.43653 103.704 2.65944 103.704 2.94737V15.644C103.704 16.2663 103.825 16.7678 104.077 17.1579C104.329 17.548 104.636 17.743 105.018 17.743H105.586C105.847 17.743 106.043 17.8266 106.201 18.0031C106.35 18.1796 106.425 18.4025 106.425 18.6904C106.425 18.9783 106.313 19.2105 106.099 19.3777C105.884 19.5542 105.586 19.6378 105.223 19.6378L105.027 19.6471Z" fill="white"/>
<path d="M108.931 5.04646C108.567 5.04646 108.26 4.91643 107.999 4.66566C107.738 4.4056 107.617 4.08981 107.617 3.71829C107.617 3.34677 107.748 3.03098 108.018 2.78021C108.288 2.52943 108.595 2.40869 108.959 2.40869C109.304 2.40869 109.611 2.52943 109.872 2.78021C110.133 3.03098 110.272 3.33748 110.272 3.71829C110.272 4.09909 110.142 4.41488 109.872 4.66566C109.602 4.91643 109.285 5.04646 108.931 5.04646Z" fill="white"/>
<path d="M108.949 19.6469C108.661 19.6469 108.428 19.554 108.251 19.3775C108.074 19.2011 107.98 18.9596 107.98 18.681V8.2599C107.98 7.96269 108.074 7.7212 108.251 7.54473C108.428 7.36826 108.67 7.28467 108.949 7.28467C109.238 7.28467 109.471 7.36826 109.639 7.54473C109.816 7.7212 109.9 7.9534 109.9 8.2599V18.681C109.9 18.9689 109.816 19.2011 109.639 19.3775C109.471 19.554 109.238 19.6469 108.949 19.6469Z" fill="white"/>
<path d="M118.714 19.7585C117.521 19.7585 116.459 19.4798 115.518 18.9319C114.577 18.3839 113.841 17.6315 113.31 16.6842C112.77 15.7368 112.509 14.6687 112.509 13.4798C112.509 12.2724 112.77 11.195 113.291 10.2476C113.813 9.30027 114.521 8.54795 115.425 7.99997C116.329 7.45198 117.363 7.17334 118.537 7.17334C119.44 7.17334 120.279 7.34981 121.052 7.70275C121.826 8.05569 122.506 8.5851 123.093 9.30028C123.27 9.5139 123.335 9.72752 123.288 9.94114C123.232 10.1548 123.093 10.3498 122.869 10.517C122.692 10.6563 122.487 10.7028 122.254 10.6563C122.03 10.6099 121.835 10.4891 121.667 10.2941C120.838 9.37458 119.794 8.91947 118.537 8.91947C117.717 8.91947 116.999 9.11452 116.375 9.50461C115.751 9.8947 115.257 10.4334 114.913 11.1114C114.568 11.7894 114.391 12.5789 114.391 13.4798C114.391 14.3529 114.568 15.1331 114.931 15.8204C115.294 16.5077 115.807 17.0464 116.459 17.4365C117.111 17.8266 117.866 18.0216 118.714 18.0216C119.291 18.0216 119.804 17.9473 120.27 17.7987C120.726 17.6501 121.145 17.4179 121.509 17.1207C121.704 16.9535 121.909 16.8606 122.133 16.8421C122.357 16.8235 122.552 16.8792 122.729 17.0371C122.925 17.2136 123.037 17.4179 123.074 17.6501C123.102 17.873 123.027 18.0774 122.85 18.2631C121.742 19.2569 120.363 19.7585 118.714 19.7585Z" fill="white"/>
<path d="M126.857 5.04646C126.493 5.04646 126.186 4.91643 125.925 4.66566C125.664 4.4056 125.543 4.08981 125.543 3.71829C125.543 3.34677 125.673 3.03098 125.944 2.78021C126.214 2.52943 126.521 2.40869 126.885 2.40869C127.229 2.40869 127.537 2.52943 127.798 2.78021C128.058 3.03098 128.198 3.33748 128.198 3.71829C128.198 4.09909 128.068 4.41488 127.798 4.66566C127.527 4.92572 127.22 5.04646 126.857 5.04646Z" fill="white"/>
<path d="M126.875 19.6469C126.586 19.6469 126.353 19.554 126.176 19.3775C125.999 19.2011 125.906 18.9596 125.906 18.681V8.2599C125.906 7.96269 125.999 7.7212 126.176 7.54473C126.353 7.36826 126.596 7.28467 126.875 7.28467C127.164 7.28467 127.397 7.36826 127.565 7.54473C127.742 7.7212 127.825 7.9534 127.825 8.2599V18.681C127.825 18.9689 127.742 19.2011 127.565 19.3775C127.397 19.554 127.164 19.6469 126.875 19.6469Z" fill="white"/>
<path d="M130.397 9.39311C130.136 9.39311 129.931 9.31881 129.763 9.1702C129.596 9.02159 129.512 8.82655 129.512 8.58506C129.512 8.34357 129.596 8.14853 129.763 7.98134C129.931 7.82345 130.145 7.73986 130.397 7.73986H135.996C136.257 7.73986 136.462 7.81416 136.63 7.98134C136.797 8.13924 136.881 8.33429 136.881 8.58506C136.881 8.82655 136.797 9.02159 136.63 9.1702C136.462 9.31881 136.248 9.39311 135.996 9.39311H130.397ZM135.828 19.647C135.046 19.647 134.338 19.4612 133.723 19.0804C133.099 18.6996 132.614 18.1795 132.26 17.52C131.906 16.8606 131.729 16.1083 131.729 15.2817V4.3219C131.729 4.03398 131.813 3.80178 131.99 3.62531C132.167 3.43955 132.391 3.35596 132.679 3.35596C132.95 3.35596 133.173 3.44884 133.36 3.62531C133.537 3.81107 133.63 4.04326 133.63 4.3219V15.2817C133.63 15.9875 133.835 16.5727 134.254 17.0371C134.673 17.5015 135.195 17.7244 135.828 17.7244H136.49C136.751 17.7244 136.956 17.8173 137.123 17.9937C137.291 18.1702 137.375 18.4117 137.375 18.6903C137.375 18.9782 137.273 19.2104 137.068 19.3776C136.863 19.5541 136.602 19.6377 136.285 19.6377L135.828 19.647Z" fill="white"/>
<path d="M143.813 19.2197C143.552 19.3404 143.319 19.359 143.114 19.2754C142.909 19.1918 142.732 19.0339 142.592 18.7924L137.738 9.04937C137.617 8.80789 137.599 8.57569 137.692 8.36207C137.785 8.14844 137.953 7.97197 138.186 7.85123C138.446 7.74906 138.679 7.73049 138.884 7.80479C139.089 7.87909 139.266 8.04628 139.378 8.29705L144.102 18.0401C144.241 18.2816 144.279 18.5138 144.241 18.7274C144.195 18.9503 144.055 19.1175 143.813 19.2197ZM141.223 25.0525C141.102 25.0525 140.953 25.0153 140.766 24.941C140.207 24.681 140.058 24.2816 140.31 23.7429L147.288 8.31563C147.53 7.77693 147.931 7.61903 148.49 7.86052C149.049 8.08343 149.207 8.48281 148.965 9.04008L141.977 24.4673C141.81 24.8574 141.558 25.0525 141.223 25.0525Z" fill="white"/>
<path d="M35.031 19.6471C33.9689 19.6471 32.9907 19.4892 32.0963 19.1641C31.2019 18.8391 30.4938 18.4304 30 17.9289C29.7764 17.6874 29.6739 17.4087 29.7205 17.1022C29.7578 16.7957 29.9068 16.545 30.1584 16.3406C30.4565 16.0991 30.764 15.997 31.0528 16.0341C31.3509 16.0713 31.6025 16.2013 31.8168 16.4335C32.0776 16.7214 32.4876 16.9908 33.0559 17.2323C33.6242 17.4737 34.2484 17.6038 34.9472 17.6038C35.823 17.6038 36.4938 17.4645 36.9503 17.1765C37.4068 16.8886 37.649 16.5171 37.6677 16.0713C37.6863 15.6254 37.4627 15.2261 37.0248 14.8917C36.5776 14.5573 35.7671 14.288 34.5838 14.0744C33.0559 13.7771 31.9472 13.322 31.2671 12.7183C30.5776 12.1146 30.2329 11.3809 30.2329 10.5078C30.2329 9.7369 30.4565 9.10532 30.913 8.59449C31.3696 8.09294 31.9472 7.71213 32.6553 7.46136C33.3633 7.21059 34.1087 7.08984 34.8726 7.08984C35.8695 7.08984 36.7546 7.24774 37.5279 7.56353C38.3012 7.87932 38.9068 8.31585 39.3633 8.87312C39.5776 9.11461 39.6708 9.36539 39.6614 9.63474C39.6428 9.8948 39.5217 10.1177 39.2795 10.3035C39.0372 10.4706 38.7484 10.5171 38.4223 10.4614C38.0869 10.3963 37.8074 10.2663 37.5838 10.0527C37.2018 9.69046 36.8012 9.43969 36.3633 9.30966C35.9254 9.17034 35.4223 9.10532 34.8447 9.10532C34.1832 9.10532 33.6149 9.21678 33.1584 9.44898C32.6925 9.67189 32.4689 10.0063 32.4689 10.4428C32.4689 10.7121 32.5435 10.9629 32.6832 11.1765C32.823 11.3902 33.1118 11.5945 33.531 11.7617C33.9503 11.9289 34.5745 12.1053 35.3944 12.2725C36.531 12.4954 37.4254 12.7833 38.0776 13.127C38.7391 13.4706 39.2049 13.8793 39.4937 14.3344C39.7826 14.7988 39.9223 15.3282 39.9223 15.9227C39.9223 16.6193 39.736 17.2415 39.3633 17.7988C38.9906 18.3561 38.4503 18.8019 37.7329 19.127C37.0062 19.4892 36.1025 19.6471 35.031 19.6471Z" fill="white"/>
<path d="M47.5244 19.6471C46.2666 19.6471 45.158 19.3777 44.1797 18.8483C43.2014 18.3096 42.4375 17.5759 41.8878 16.6378C41.3381 15.6997 41.0586 14.613 41.0586 13.3963C41.0586 12.161 41.3195 11.0743 41.8412 10.127C42.3629 9.18888 43.0803 8.44585 44.0027 7.91644C44.925 7.37774 45.9778 7.11768 47.1797 7.11768C48.3629 7.11768 49.3691 7.37774 50.2169 7.89786C51.0648 8.41798 51.7076 9.13316 52.1548 10.0434C52.602 10.9536 52.8256 12.0031 52.8256 13.192C52.8256 13.4799 52.7231 13.7121 52.5275 13.9071C52.3318 14.0929 52.0803 14.1858 51.7821 14.1858H42.6518V12.3746H51.7169L50.7853 13.0062C50.7666 12.2539 50.6176 11.5759 50.3287 10.9815C50.0399 10.387 49.63 9.91334 49.1082 9.56969C48.5772 9.22603 47.9343 9.04956 47.1797 9.04956C46.3225 9.04956 45.5772 9.23532 44.9716 9.61613C44.3567 9.99693 43.8909 10.5078 43.5741 11.1672C43.2573 11.8267 43.099 12.5604 43.099 13.3963C43.099 14.2229 43.2853 14.966 43.6673 15.6068C44.0399 16.257 44.571 16.7678 45.2325 17.1393C45.894 17.5202 46.6579 17.7059 47.5244 17.7059C47.9902 17.7059 48.4747 17.6223 48.9685 17.4458C49.4623 17.2694 49.8536 17.0743 50.161 16.8514C50.3846 16.6842 50.6362 16.6006 50.8971 16.5914C51.1579 16.5821 51.3908 16.6657 51.5865 16.8328C51.8474 17.0558 51.9778 17.3065 51.9964 17.5759C52.0151 17.8452 51.8939 18.0774 51.6331 18.2725C51.1207 18.6811 50.4778 19.0062 49.7138 19.2663C48.9499 19.5263 48.2138 19.6471 47.5244 19.6471Z" fill="white"/>
<path d="M60.0093 19.6471C58.7515 19.6471 57.6428 19.3777 56.6646 18.8483C55.6863 18.3096 54.9223 17.5759 54.3726 16.6378C53.823 15.6997 53.5435 14.613 53.5435 13.3963C53.5435 12.161 53.8043 11.0743 54.3261 10.127C54.8478 9.18888 55.5652 8.44585 56.4875 7.91644C57.4099 7.37774 58.4627 7.11768 59.6646 7.11768C60.8478 7.11768 61.854 7.37774 62.7018 7.89786C63.5496 8.41798 64.1925 9.13316 64.6397 10.0434C65.0869 10.9536 65.3105 12.0031 65.3105 13.192C65.3105 13.4799 65.208 13.7121 65.0124 13.9071C64.8167 14.0929 64.5651 14.1858 64.267 14.1858H55.1366V12.3746H64.2018L63.2701 13.0062C63.2515 12.2539 63.1024 11.5759 62.8136 10.9815C62.5248 10.387 62.1148 9.91334 61.5931 9.56969C61.0621 9.22603 60.4192 9.04956 59.6646 9.04956C58.8074 9.04956 58.0621 9.23532 57.4565 9.61613C56.8416 9.99693 56.3757 10.5078 56.059 11.1672C55.7422 11.8267 55.5838 12.5604 55.5838 13.3963C55.5838 14.2229 55.7702 14.966 56.1521 15.6068C56.5248 16.257 57.0559 16.7678 57.7174 17.1393C58.3788 17.5202 59.1428 17.7059 60.0093 17.7059C60.4751 17.7059 60.9596 17.6223 61.4534 17.4458C61.9471 17.2694 62.3385 17.0743 62.6459 16.8514C62.8695 16.6842 63.1211 16.6006 63.3819 16.5914C63.6428 16.5821 63.8757 16.6657 64.0714 16.8328C64.3322 17.0558 64.4627 17.3065 64.4813 17.5759C64.4999 17.8452 64.3788 18.0774 64.1179 18.2725C63.6055 18.6811 62.9627 19.0062 62.1987 19.2663C61.4347 19.5263 60.708 19.6471 60.0093 19.6471Z" fill="white"/>
</svg>
