<svg width="16" height="16" viewBox="0 0 16 16" fill="none" xmlns="http://www.w3.org/2000/svg">
<path d="M15.9314 13.4314C15.9167 13.5367 15.8815 13.6319 15.8295 13.7152L15.8315 13.7126C15.7476 13.8512 15.5984 13.9424 15.4272 13.9424C15.2834 13.9424 15.1548 13.8778 15.0683 13.7765L15.0676 13.7759C14.5541 13.2668 14.0413 12.7571 13.5358 12.2407C13.4412 12.1308 13.302 12.0621 13.1469 12.0621C13.1355 12.0621 13.1249 12.0628 13.1142 12.0635H13.1156C12.7779 12.0761 12.4409 12.0635 12.0892 12.0635C12.0813 12.1041 12.0739 12.1547 12.0699 12.2054V12.2101C12.0699 12.5479 12.0699 12.885 12.0699 13.2235C12.0699 13.2282 12.0693 13.2342 12.0693 13.2395C12.0693 13.3201 12.1032 13.3934 12.1585 13.4441C12.4655 13.7406 12.7706 14.0384 13.0729 14.3402C13.32 14.5861 13.5664 14.8353 13.8049 15.0912C13.8868 15.1764 13.9374 15.2924 13.9374 15.4203C13.9374 15.6442 13.7835 15.8314 13.5758 15.8827L13.5724 15.8834C13.4179 15.9294 13.2388 15.9607 13.0536 15.972H13.047C12.9457 15.9827 12.8285 15.9887 12.71 15.9887C12.2344 15.9887 11.7816 15.8901 11.3706 15.7128L11.3926 15.7215C10.4109 15.297 9.69431 14.4242 9.49384 13.3688L9.49051 13.3488C9.45055 13.1582 9.42791 12.939 9.42791 12.7144C9.42791 12.3646 9.48318 12.0275 9.58575 11.7117L9.57909 11.7343C9.58442 11.7163 9.58775 11.6963 9.58775 11.675C9.58775 11.6044 9.55245 11.5417 9.49784 11.5038L9.49717 11.5031C9.14774 11.1562 8.79876 10.8088 8.45022 10.461L5.03963 7.05218C4.85514 6.86761 4.66866 6.68505 4.48618 6.49715C4.44555 6.44917 4.38561 6.41919 4.31835 6.41919C4.28838 6.41919 4.25974 6.42519 4.23377 6.43585L4.2351 6.43518C3.95072 6.52447 3.62438 6.57577 3.28538 6.57577C2.76057 6.57577 2.26507 6.45251 1.82551 6.23262L1.84416 6.24129C0.927739 5.80885 0.262404 4.97397 0.0712621 3.97052L0.0679321 3.95053C0.025308 3.74064 0.001332 3.49944 0.001332 3.25224C0.001332 3.00504 0.025308 2.76384 0.0719281 2.53063L0.0679321 2.55395C0.0825841 2.454 0.11655 2.36339 0.1665 2.28476L0.165168 2.28743C0.249084 2.14884 0.398934 2.05755 0.570763 2.05755C0.714619 2.05755 0.843157 2.12152 0.929737 2.2228L0.930403 2.22346C1.42791 2.71653 1.92741 3.20626 2.41225 3.71066C2.5308 3.84925 2.70529 3.93587 2.90043 3.93587C2.91975 3.93587 2.93906 3.9352 2.95837 3.9332H2.95571C3.26806 3.91455 3.58242 3.92854 3.93273 3.92854V3.60338C3.93273 3.3242 3.93273 3.04635 3.93273 2.76717C3.93273 2.7625 3.9334 2.75717 3.9334 2.75184C3.9334 2.67122 3.89943 2.59793 3.84416 2.54729C3.62105 2.33474 3.39993 2.12018 3.18149 1.9023C2.84649 1.56648 2.50749 1.23333 2.18515 0.886187C2.10989 0.802898 2.06394 0.691625 2.06394 0.570358C2.06394 0.347145 2.21845 0.159913 2.42691 0.10994L2.43024 0.109274C2.57942 0.0639653 2.75258 0.032649 2.93107 0.0206555L2.93839 0.0199892C3.03896 0.00999459 3.15551 0.00399783 3.27406 0.00399783C3.7376 0.00399783 4.17982 0.0939491 4.58408 0.25786L4.56077 0.249198C5.33067 0.571024 5.93673 1.15871 6.27373 1.89564L6.28172 1.91563C6.46687 2.30209 6.57476 2.75651 6.57476 3.23558C6.57476 3.26223 6.57409 3.28955 6.57343 3.3162V3.31221C6.55278 3.64603 6.50416 3.95786 6.42891 4.25836L6.43623 4.22238C6.42824 4.24637 6.42358 4.27302 6.42358 4.30167C6.42358 4.3763 6.45621 4.44293 6.50816 4.4889C7.19014 5.16587 7.87102 5.84461 8.55078 6.52513C9.52048 7.4935 10.4893 8.46253 11.4572 9.43222C11.5198 9.51018 11.6157 9.55949 11.7229 9.55949C11.7662 9.55949 11.8075 9.55149 11.8455 9.53683L11.8435 9.5375C12.1092 9.45888 12.4149 9.41357 12.7306 9.41357C13.2594 9.41357 13.7582 9.54083 14.1991 9.76538L14.1812 9.75672C15.0929 10.1945 15.7522 11.0327 15.9367 12.0375L15.9394 12.0568C15.978 12.258 16 12.4892 16 12.7258C16 12.9743 15.976 13.2168 15.9294 13.452L15.9334 13.4281L15.9314 13.4314ZM4.67 8.007C4.63203 8.04165 4.58675 8.07829 4.54545 8.11894C3.26984 9.39336 1.99445 10.6667 0.719281 11.9389C0.355644 12.282 0.105894 12.7424 0.030636 13.2595L0.029304 13.2715C0.010656 13.3834 0 13.512 0 13.6433C0 14.093 0.123876 14.5135 0.338994 14.8733L0.333 14.8626C0.351648 14.8926 0.36297 14.9272 0.384282 14.9719C0.47286 14.8913 0.518148 14.8493 0.562105 14.804L2.50083 12.8684C2.99167 12.3773 3.47786 11.8849 3.97669 11.3998C4.05728 11.3192 4.15718 11.2579 4.26906 11.2233L4.27439 11.2219C4.2977 11.2173 4.32368 11.2146 4.35098 11.2146C4.51282 11.2146 4.65268 11.3099 4.71728 11.4471L4.71861 11.4498C4.76124 11.5091 4.78721 11.5831 4.78721 11.663C4.78721 11.7463 4.75924 11.8236 4.71195 11.8856L4.71262 11.8849C4.66533 11.9509 4.61538 12.0088 4.56011 12.0621L4.55944 12.0628L1.18482 15.4336C1.13686 15.4816 1.09624 15.5349 1.05428 15.5822C1.06494 15.6016 1.07559 15.6175 1.08625 15.6329L1.08492 15.6309C1.09291 15.6395 1.10223 15.6475 1.11222 15.6535H1.11289C1.46653 15.8714 1.89544 16 2.35431 16C2.60273 16 2.84182 15.962 3.0676 15.8921L3.05028 15.8967C3.4359 15.7815 3.76557 15.5756 4.02664 15.3037L4.02731 15.303C5.31002 14.0189 6.59385 12.736 7.87879 11.4545C7.91941 11.4138 7.95604 11.3658 7.99134 11.3299C7.90676 11.1513 4.84249 8.08962 4.67 8.007ZM9.90876 6.6504C9.92541 6.67172 9.95072 6.68505 9.97935 6.68505C10.008 6.68505 10.0333 6.67172 10.05 6.6504C10.0852 6.61775 10.1185 6.58377 10.1518 6.55112C10.7641 5.93945 11.3762 5.32734 11.988 4.71478C12.0493 4.64415 12.1325 4.59484 12.2271 4.57752L12.2298 4.57685C12.4349 4.5502 12.64 4.51822 12.8452 4.48824L14.2524 4.28501C14.4476 4.25703 14.6067 4.12843 14.6773 3.95386L14.6787 3.95053C14.8825 3.52809 15.0896 3.10765 15.3 2.68921C15.5078 2.2701 15.7209 1.853 15.9267 1.43189C15.9727 1.3566 16 1.26465 16 1.16737C16 1.01412 15.9334 0.876858 15.8268 0.782243L15.8262 0.781577C15.6257 0.57902 15.4219 0.379794 15.2234 0.177237C15.1275 0.0786241 14.9983 0.0133261 14.8538 0H14.8518C14.7326 0.0319827 14.6334 0.0666306 14.5375 0.107275L14.5534 0.101278C14.1372 0.304502 13.7256 0.514388 13.31 0.722942C12.9164 0.918169 12.5288 1.12472 12.1272 1.3013C11.8974 1.38592 11.7316 1.5918 11.7056 1.83967V1.84234C11.623 2.45867 11.5278 3.07367 11.4499 3.68934C11.4332 3.83059 11.3686 3.95386 11.2727 4.04448C10.8145 4.4889 10.3636 4.94732 9.91076 5.39908L9.39461 5.91413C9.34332 5.96544 9.28472 6.02007 9.35731 6.09203C9.53247 6.28326 9.71895 6.46583 9.90343 6.64973L9.90876 6.6504Z" fill="white"/>
</svg>
